<mxfile host="Electron" modified="2023-11-09T02:26:49.112Z" agent="Mozilla/5.0 (Windows NT 10.0; Win64; x64) AppleWebKit/537.36 (KHTML, like Gecko) draw.io/21.5.1 Chrome/112.0.5615.204 Electron/24.6.0 Safari/537.36" etag="1vs3JaVxCJ4L102HbXmK" version="21.5.1" type="device">
  <diagram name="Page-1" id="awyFjPUmdJH1eiQyBZwr">
    <mxGraphModel dx="1084" dy="1184" grid="1" gridSize="10" guides="1" tooltips="1" connect="1" arrows="1" fold="1" page="1" pageScale="1" pageWidth="827" pageHeight="1169" math="0" shadow="0">
      <root>
        <mxCell id="0" />
        <mxCell id="1" parent="0" />
        <mxCell id="8uUTwKV7df00euo2roOs-3" value="&amp;nbsp;provide a service like TI, support etc&amp;nbsp;" style="edgeStyle=orthogonalEdgeStyle;rounded=0;orthogonalLoop=1;jettySize=auto;html=1;strokeColor=#00994D;strokeWidth=3;" edge="1" parent="1" source="8uUTwKV7df00euo2roOs-4" target="8uUTwKV7df00euo2roOs-6">
          <mxGeometry x="-0.0058" relative="1" as="geometry">
            <Array as="points">
              <mxPoint x="400" y="390" />
              <mxPoint x="400" y="390" />
            </Array>
            <mxPoint as="offset" />
          </mxGeometry>
        </mxCell>
        <mxCell id="8uUTwKV7df00euo2roOs-17" value="data" style="edgeStyle=orthogonalEdgeStyle;rounded=0;orthogonalLoop=1;jettySize=auto;html=1;entryX=0.995;entryY=0.491;entryDx=0;entryDy=0;entryPerimeter=0;strokeWidth=3;strokeColor=#0000FF;startArrow=classic;startFill=1;" edge="1" parent="1" source="8uUTwKV7df00euo2roOs-4" target="8uUTwKV7df00euo2roOs-10">
          <mxGeometry x="0.4212" relative="1" as="geometry">
            <Array as="points">
              <mxPoint x="619" y="188" />
            </Array>
            <mxPoint as="offset" />
          </mxGeometry>
        </mxCell>
        <mxCell id="8uUTwKV7df00euo2roOs-4" value="Company B" style="sketch=0;outlineConnect=0;fontColor=#232F3E;gradientColor=none;fillColor=#232F3D;strokeColor=none;dashed=0;verticalLabelPosition=bottom;verticalAlign=top;align=center;html=1;fontSize=20;fontStyle=0;aspect=fixed;pointerEvents=1;shape=mxgraph.aws4.client;labelPosition=center;" vertex="1" parent="1">
          <mxGeometry x="580" y="355" width="78" height="76" as="geometry" />
        </mxCell>
        <mxCell id="8uUTwKV7df00euo2roOs-18" value="data" style="edgeStyle=orthogonalEdgeStyle;rounded=0;orthogonalLoop=1;jettySize=auto;html=1;entryX=-0.005;entryY=0.509;entryDx=0;entryDy=0;entryPerimeter=0;strokeWidth=3;strokeColor=#0000FF;startArrow=classic;startFill=1;" edge="1" parent="1" source="8uUTwKV7df00euo2roOs-6" target="8uUTwKV7df00euo2roOs-10">
          <mxGeometry x="0.457" relative="1" as="geometry">
            <Array as="points">
              <mxPoint x="199" y="190" />
            </Array>
            <mxPoint as="offset" />
          </mxGeometry>
        </mxCell>
        <mxCell id="8uUTwKV7df00euo2roOs-6" value="Company A" style="sketch=0;outlineConnect=0;fontColor=#232F3E;gradientColor=none;fillColor=#232F3D;strokeColor=none;dashed=0;verticalLabelPosition=bottom;verticalAlign=top;align=center;html=1;fontSize=20;fontStyle=0;aspect=fixed;pointerEvents=1;shape=mxgraph.aws4.client;labelPosition=center;" vertex="1" parent="1">
          <mxGeometry x="160" y="355" width="78" height="76" as="geometry" />
        </mxCell>
        <mxCell id="8uUTwKV7df00euo2roOs-10" value="" style="html=1;strokeWidth=1;shadow=0;dashed=0;shape=mxgraph.ios7.misc.vpn;fillColor=#007AFF;strokeColor=none;buttonText=;strokeColor2=#222222;fontColor=#222222;fontSize=8;verticalLabelPosition=bottom;verticalAlign=top;align=center;sketch=0;" vertex="1" parent="1">
          <mxGeometry x="358.5" y="134" width="110" height="110" as="geometry" />
        </mxCell>
        <mxCell id="8uUTwKV7df00euo2roOs-21" style="edgeStyle=orthogonalEdgeStyle;rounded=0;orthogonalLoop=1;jettySize=auto;html=1;startArrow=classic;startFill=1;strokeColor=#FF0000;strokeWidth=3;" edge="1" parent="1" source="8uUTwKV7df00euo2roOs-19" target="8uUTwKV7df00euo2roOs-4">
          <mxGeometry relative="1" as="geometry">
            <Array as="points">
              <mxPoint x="759" y="390" />
            </Array>
          </mxGeometry>
        </mxCell>
        <mxCell id="8uUTwKV7df00euo2roOs-19" value="Attacker" style="sketch=0;outlineConnect=0;fontColor=#FF0000;gradientColor=none;fillColor=#232F3D;strokeColor=none;dashed=0;verticalLabelPosition=top;verticalAlign=bottom;align=center;html=1;fontSize=20;fontStyle=1;aspect=fixed;pointerEvents=1;shape=mxgraph.aws4.user;labelPosition=center;" vertex="1" parent="1">
          <mxGeometry x="720" y="220" width="78" height="78" as="geometry" />
        </mxCell>
      </root>
    </mxGraphModel>
  </diagram>
</mxfile>
